<?xml version="1.0" encoding="utf-8"?>
<!-- Generator: Adobe Illustrator 17.0.0, SVG Export Plug-In . SVG Version: 6.00 Build 0)  -->
<!DOCTYPE svg PUBLIC "-//W3C//DTD SVG 1.1//EN" "http://www.w3.org/Graphics/SVG/1.1/DTD/svg11.dtd">
<svg version="1.1" id="Layer_1" xmlns="http://www.w3.org/2000/svg" xmlns:xlink="http://www.w3.org/1999/xlink" x="0px" y="0px"
	 width="28.35px" height="28.35px" viewBox="0 0 28.35 28.35" enable-background="new 0 0 28.35 28.35" xml:space="preserve">
<g>
	<path fill="#E21414" d="M24.142,6.139h-5.98c-0.311-1.9-1.962-3.364-3.956-3.364h-0.062c-1.993,0-3.644,1.464-3.956,3.364h-5.98
		c-0.529,0-0.934,0.405-0.934,0.934s0.405,0.934,0.934,0.934h1.37v13.518c0,2.243,1.806,4.049,4.049,4.049h9.064
		c2.243,0,4.049-1.806,4.049-4.049V8.008h1.402c0.529,0,0.934-0.405,0.934-0.934S24.671,6.139,24.142,6.139z M14.144,4.644h0.062
		c0.966,0,1.775,0.623,2.025,1.495h-4.142C12.368,5.267,13.178,4.644,14.144,4.644z M20.903,21.526c0,1.215-0.966,2.18-2.18,2.18
		H9.628c-1.215,0-2.18-0.966-2.18-2.18V8.008h13.424v13.518C20.872,21.526,20.903,21.526,20.903,21.526z"/>
	<path fill="#E21414" d="M11.341,20.622c0.529,0,0.934-0.405,0.934-0.934v-7.6c0-0.529-0.405-0.934-0.934-0.934
		s-0.934,0.405-0.934,0.934v7.6C10.406,20.217,10.811,20.622,11.341,20.622z"/>
	<path fill="#E21414" d="M17.009,20.622c0.529,0,0.934-0.405,0.934-0.934v-7.6c0-0.529-0.405-0.934-0.934-0.934
		s-0.934,0.405-0.934,0.934v7.6C16.075,20.217,16.511,20.622,17.009,20.622z"/>
</g>
</svg>
