<?xml version="1.0" encoding="utf-8"?>
<!-- Generator: Adobe Illustrator 17.0.0, SVG Export Plug-In . SVG Version: 6.00 Build 0)  -->
<!DOCTYPE svg PUBLIC "-//W3C//DTD SVG 1.1//EN" "http://www.w3.org/Graphics/SVG/1.1/DTD/svg11.dtd">
<svg version="1.1" id="Layer_1" xmlns="http://www.w3.org/2000/svg" xmlns:xlink="http://www.w3.org/1999/xlink" x="0px" y="0px"
	 width="28.35px" height="28.35px" viewBox="0 0 28.35 28.35" enable-background="new 0 0 28.35 28.35" xml:space="preserve">
<g>
	<path fill="#4FCC70" d="M21.812,6.539c-1.547-1.551-4.064-1.551-5.611,0L5.913,16.823c-0.08,0.08-0.13,0.184-0.146,0.295
		l-0.762,5.646c-0.023,0.161,0.034,0.322,0.146,0.433c0.096,0.096,0.23,0.153,0.364,0.153c0.023,0,0.046,0,0.069-0.004l3.401-0.46
		c0.283-0.038,0.483-0.299,0.444-0.582c-0.038-0.283-0.299-0.483-0.582-0.444L6.12,22.227l0.532-3.937l4.144,4.144
		c0.096,0.096,0.23,0.153,0.364,0.153c0.134,0,0.268-0.054,0.364-0.153L21.812,12.15c0.751-0.751,1.164-1.747,1.164-2.807
		S22.562,7.286,21.812,6.539z M16.4,7.803l1.727,1.727L8.74,18.918l-1.727-1.727L16.4,7.803z M11.164,21.339L9.475,19.65
		l9.388-9.388l1.689,1.689L11.164,21.339z M21.272,11.212L17.139,7.08c0.525-0.433,1.18-0.67,1.869-0.67
		c0.785,0,1.521,0.306,2.076,0.858s0.858,1.291,0.858,2.076C21.942,10.036,21.704,10.687,21.272,11.212z"/>
</g>
</svg>
